<svg width="1000" height="1000" viewBox="-25 -25 1050 1050" fill="none" xmlns="http://www.w3.org/2000/svg">
    <defs>
        <linearGradient id="a" x1="0" x2="0" y1="0" y2="1">
            <stop offset="0%" stop-color="#103E6E"/>
            <stop offset="100%" stop-color="#3585CD"/>
        </linearGradient>
    </defs>
    <rect width="1000" height="1000" rx="200" fill="url(#a)"/>
    <path d="M611.73 206C628.04 206 641.371 219.015 641.783 235.226L641.793 236C641.793 274.66 673.133 306 711.793 306H726.969L727.356 306.005C735.463 306.21 742 312.845 742 321V725C742 763.66 710.66 795 672 795H302.638C277.985 795 258 775.066 258 750.476V276C258 237.34 289.34 206 328 206H611.73Z"
          fill="#FEFEFE"/>
    <path d="M563.263 339C591.591 359.588 622.663 366.009 657.064 366.346C656.861 372.777 657.814 379.498 656.988 385.868C656.829 387.1 656.595 388.605 655.433 389.294C652.163 391.233 646.17 390.397 642.522 390.169C624.041 389.012 606.145 385.402 588.378 380.222C584.102 384.181 579.876 388.298 576.235 392.857C568.139 402.995 563.534 415.182 565.046 428.25C566.844 443.805 576.803 456.864 588.819 466.27C611.664 484.149 644.176 488.538 672.276 485.052C672.727 493.498 672.968 501.954 673 510.412C658.823 510.078 644.521 509.709 630.38 511.053C586.439 515.228 541.013 536.761 507.074 564.563C499.697 570.607 493.097 577.354 486.404 584.132C481.723 588.872 476.878 593.474 472.627 598.614C474.507 619.098 473.726 628.967 468.901 649C460.63 647.442 452.308 646.271 444.123 644.274C446.726 632.982 450.663 620.563 449.11 608.924C446.997 593.08 435.013 578.301 422.642 568.954C412.141 561.019 396.914 552.582 383.26 554.277C377.256 555.021 371.358 557.13 365.461 558.49C358.719 560.044 351.863 561.034 345.019 562.015L336.029 563.369C334.674 555.343 333.423 547.279 331.689 539.325C345.017 536.011 358.978 535.637 372.213 532.032C380.124 529.877 386.099 525.773 390.141 518.484C392.322 514.485 393.68 510.089 394.135 505.555C394.59 501.021 394.132 496.442 392.789 492.088C386.891 472.299 365.941 456.117 348.397 447.085C341.319 443.441 333.694 440.922 326.71 437.096L326 436.702C329.308 429.454 333.375 422.442 336.872 415.256C352.35 423.8 365.693 428.468 380.188 439.665C398.129 453.522 414.396 472.493 417.253 495.767C418.932 509.439 415.789 523.441 407.299 534.345C422.101 541.215 436.281 547.832 447.662 559.996C452.627 565.303 457.063 571.262 461.698 576.869C467.227 571.328 472.096 565.134 477.813 559.771C503.537 535.641 538.062 514.568 571.012 502.11C577.567 499.632 584.547 498.422 591.158 496.041C584.087 488.964 574.869 484.341 567.428 477.601C552.989 464.524 543.222 446.82 542.32 427.148C541.289 404.644 551.262 385.372 565.997 369.065C560.877 365.89 555.341 363.143 550.684 359.307C555.471 352.793 559.369 346.065 563.263 339Z"
          fill="#184C7D"/>
    <rect x="326" y="684" width="347" height="26" rx="13" fill="#184C7D"/>
    <ellipse cx="422.705" cy="328.783" rx="92.5" ry="30" transform="rotate(-24 422.705 328.783)" fill="#184C7D"/>
</svg>
